HIERARCHY
ROOT Hips
{
  OFFSET -59.3143 95.8942 -113.006
  CHANNELS 6 Xposition Yposition Zposition Zrotation Xrotation Yrotation
  JOINT RightUpLeg
  {
    OFFSET -8.9458 -8.66707 0.101652
    CHANNELS 3 Zrotation Xrotation Yrotation
    JOINT RightLeg
    {
      OFFSET 0 -44.4227 1.3727
      CHANNELS 3 Zrotation Xrotation Yrotation
      JOINT RightFoot
      {
        OFFSET 0.253549 -42.0924 -1.46059
        CHANNELS 3 Zrotation Xrotation Yrotation
        JOINT RightToes
        {
          OFFSET 0.04 -4.41509 8.4991
          CHANNELS 3 Zrotation Xrotation Yrotation
          End Site
          {
            OFFSET -0.08 -0.137448 9.77979
          }
        }
      }
    }
  }
  JOINT Spine
  {
    OFFSET 0 11.8905 0
    CHANNELS 3 Zrotation Xrotation Yrotation
    JOINT Spine1
    {
      OFFSET 0 25.6574 0.127663
      CHANNELS 3 Zrotation Xrotation Yrotation
      JOINT HEad
      {
        OFFSET 0 8.73416 0.011341
        CHANNELS 3 Zrotation Xrotation Yrotation
        End Site
        {
          OFFSET -0.29 12.7742 2.51395
        }
      }
      JOINT LeftShoulder1
      {
        OFFSET 8.99 -0.362252 -0.22
        CHANNELS 3 Zrotation Xrotation Yrotation
        JOINT LeftArm
        {
          OFFSET 10.2827 -0.00338 0.322123
          CHANNELS 3 Zrotation Xrotation Yrotation
          JOINT LeftForeArm
          {
            OFFSET 32.7669 0.099144 -1.42434
            CHANNELS 3 Zrotation Xrotation Yrotation
            JOINT LeftHand
            {
              OFFSET 27.5643 0.085362 1.02216
              CHANNELS 3 Zrotation Xrotation Yrotation
              End Site
              {
                OFFSET 16.7443 -0.6 1.50291
              }
            }
          }
        }
      }
      JOINT RightShoulder
      {
        OFFSET -8.99 -0.362252 -0.22
        CHANNELS 3 Zrotation Xrotation Yrotation
        JOINT RightArm
        {
          OFFSET -10.2827 -0.00338 0.322123
          CHANNELS 3 Zrotation Xrotation Yrotation
          JOINT RightForeArm
          {
            OFFSET -32.8971 0.099144 -1.42434
            CHANNELS 3 Zrotation Xrotation Yrotation
            JOINT RightHand
            {
              OFFSET -27.4921 0.085362 1.02216
              CHANNELS 3 Zrotation Xrotation Yrotation
              End Site
              {
                OFFSET -16.6312 -0.6 1.50291
              }
            }
          }
        }
      }
    }
  }
  JOINT LeftUpLeg
  {
    OFFSET 8.9458 -8.66707 0.101652
    CHANNELS 3 Zrotation Xrotation Yrotation
    JOINT LeftLeg
    {
      OFFSET 0 -44.4227 1.3727
      CHANNELS 3 Zrotation Xrotation Yrotation
      JOINT LeftFoot
      {
        OFFSET -0.253549 -42.0924 -1.46059
        CHANNELS 3 Zrotation Xrotation Yrotation
        JOINT LeftToes
        {
          OFFSET -0.04 -4.41509 8.4991
          CHANNELS 3 Zrotation Xrotation Yrotation
          End Site
          {
            OFFSET 0.08 -0.047448 9.77979
          }
        }
      }
    }
  }
}
MOTION
Frames:	7
Frame Time:	0.0166667
-157.234 89.0433 -51.2638 2.44685 -18.5173 22.4394 -13.1509 8.79106 8.0388 11.0599 30.8662 -1.89554 10.3569 2.64334 -1.03711 -30.2949 -27.7854 -5.81609 4.05585 12.9947 1.15169 6.02506 26.2709 1.92678 -4.76595 -14.2267 22.4436 -1.05934e-030 -6.36111e-015 -9.54166e-015 -70.9459 -30.1533 -41.2944 -47.4834 7.46134 -53.5153 -11.9736 14.9166 -39.584 11.1366 3.72949 23.1701 91.7128 -23.68 91.7768 40.9745 67.8062 84.068 -10.3468 12.3373 -33.2153 23.2839 -20.1386 -2.15118 -5.33825 44.9892 11.3681 -16.9398 21.9536 4.2412 -7.13375 -21.7305 -9.76726 
-155.395 89.2974 -51.5913 2.70125 -17.7778 20.7208 -14.6974 8.04638 8.76501 9.36274 30.2915 -0.223813 11.5048 2.9845 -1.17297 -29.0473 -26.9179 -4.84325 3.67966 12.9611 2.00556 4.94351 26.2376 3.8096 -4.34027 -15.3578 22.1474 -1.76556e-031 3.18055e-015 3.18055e-015 -68.2207 -32.7889 -36.0613 -47.0082 18.4509 -57.1257 -12.9548 15.2616 -39.2678 11.2457 3.66243 22.5558 94.2279 -26.024 90.6177 42.1695 69.177 85.2861 -11.0835 12.4447 -32.3719 24.3043 -21.1043 -2.20525 -9.15064 46.3325 12.0045 -19.1235 24.9182 5.30074 -7.74403 -21.8308 -13.8905 
-153.43 89.8681 -51.903 2.80321 -16.7004 18.0884 -16.1425 6.57758 9.12877 6.93993 29.5109 2.08836 12.9351 3.86695 -1.40053 -27.1571 -25.5077 -3.70558 2.95875 12.7894 2.86279 3.49042 25.8668 5.66753 -3.69105 -15.977 23.0963 -0 0 3.18055e-015 -61.3604 -31.8971 -29.2933 -42.6981 24.415 -65.6368 -15.0638 15.8626 -37.7994 12.5715 3.79854 21.5879 92.5275 -28.4657 86.9688 40.4107 68.9283 89.3051 -11.3458 12.3924 -31.1573 25.3342 -21.0755 -1.79922 -12.0995 46.142 13.0765 -19.4138 26.247 5.60709 -7.44809 -20.5438 -15.8047 
-151.365 90.6334 -52.2506 2.61564 -15.4479 14.755 -17.227 4.31543 8.82964 4.20786 28.7076 4.59423 14.4134 5.71709 -1.77071 -24.9595 -23.7473 -3.04289 1.9701 12.5 3.53301 2.04487 25.2087 7.03482 -3.04579 -16.2178 25.5031 3.18055e-015 3.18055e-015 -3.18055e-015 -54.0823 -33.343 -22.8969 -37.9448 28.4308 -72.8407 -18.0847 16.7766 -36.5289 14.8609 4.10965 20.6264 86.443 -30.2709 80.8895 36.487 67.0034 95.0716 -11.1062 12.2036 -29.7411 26.176 -20.0188 -1.16456 -13.3536 44.5025 15.1557 -17.4241 25.9377 4.96001 -6.89525 -19.2661 -15.8672 
-149.215 91.4445 -52.6666 2.01812 -14.1735 11.0569 -17.7029 1.1957 7.64907 1.6159 28.3774 6.75714 15.9163 8.76363 -2.3504 -22.8357 -21.9783 -2.99992 0.970006 12.1205 3.77696 0.978949 24.3825 7.45215 -2.62051 -16.4214 29.4793 -7.06225e-031 6.36111e-015 6.36111e-015 -46.2287 -37.8356 -16.3994 -35.0155 30.4211 -76.375 -21.4346 17.9543 -36.2613 17.4976 4.55992 20.1909 77.0348 -30.587 73.1473 32.0297 63.8321 100.961 -10.5858 11.9751 -28.465 26.7145 -18.1239 -0.931165 -13.1063 41.5608 18.8105 -13.7784 24.2035 3.67461 -6.06203 -17.8178 -13.8363 
-147.016 92.1522 -53.1726 0.999535 -13.0525 7.43786 -17.4461 -2.65921 5.7154 -0.492631 29.1211 7.75064 17.5796 13.2855 -3.25576 -21.7066 -21.0278 -2.93653 0.272825 11.7331 3.44323 0.522535 23.6013 6.69727 -2.47246 -16.895 34.7945 -1.59028e-015 0 6.36111e-015 -37.1499 -44.5545 -9.24553 -35.2288 30.3177 -74.4889 -24.2153 19.1637 -37.037 19.7812 5.09764 20.5231 66.4697 -29.0417 65.4651 28.1518 60.1552 105.895 -10.1056 11.8021 -27.6092 26.9115 -15.7235 -1.64057 -11.9529 37.7081 23.4041 -9.91028 21.3712 2.3621 -4.52647 -14.8109 -9.30994 
-144.871 92.6212 -53.7912 -0.297911 -12.2862 4.35168 -16.5337 -6.89658 3.52087 -1.93907 31.4479 6.86043 19.5364 19.3199 -4.61431 -22.918 -22.0619 -1.94792 0.0108213 11.4962 2.56725 0.672478 23.169 4.87412 -2.44244 -17.8163 40.7935 -7.95139e-016 3.18055e-015 -0 -26.6583 -51.6011 -1.72426 -37.8521 27.3204 -67.1018 -25.6016 19.9315 -38.001 21.1494 5.59986 21.433 57.086 -26.2073 59.9091 25.2939 56.7705 109.392 -9.89687 11.7432 -27.4068 26.7548 -13.2123 -3.1503 -10.1641 33.7499 27.2634 -7.16635 18.2258 1.48814 -2.74617 -10.1629 -3.43028 
